<svg width="1518" height="813" viewBox="0 0 1518 813" fill="none" xmlns="http://www.w3.org/2000/svg">
<path fill-rule="evenodd" clip-rule="evenodd" d="M974.773 335.619L839.01 199.854L854.449 184.416L990.211 320.18L974.773 335.619Z" fill="#2B0091"/>
<path fill-rule="evenodd" clip-rule="evenodd" d="M999.352 500.046L904.874 641.765L891.002 632.517L985.48 490.798L999.352 500.046Z" fill="#01688E"/>
<path d="M842.363 243.741H788.772V556.953H842.363V243.741Z" fill="#FF00A4"/>
<path d="M1487.04 257.238H1124.8L1188.91 323.136H1258.98V563.106L1346.51 512.492V323.136H1419.35L1487.04 257.238Z" fill="#2B0091"/>
<path d="M558.929 245.726L476.36 294.951V551.99H709.975L779.444 482.719H558.929V245.726Z" fill="#2B0091"/>
<path d="M385.058 349.336L452.939 281.652H139.732L73.6373 365.215L136.16 447.388H330.276L346.949 463.664L330.276 482.719H136.16L69.2707 551.99L385.058 549.609L449.962 463.664L385.058 384.27H187.368L172.68 365.215L187.368 349.336H385.058Z" fill="#2B0091"/>
<path fill-rule="evenodd" clip-rule="evenodd" d="M1230.3 616.248L1100.1 482.865L1112.6 470.664L1242.8 604.046L1230.3 616.248Z" fill="#73008B"/>
<path fill-rule="evenodd" clip-rule="evenodd" d="M1184.95 410.073C1184.95 489 1120.96 552.983 1042.04 552.983C963.111 552.983 899.129 489 899.129 410.073C899.129 331.146 963.111 267.163 1042.04 267.163C1120.96 267.163 1184.95 331.146 1184.95 410.073ZM1042.04 495.819C1089.39 495.819 1127.78 457.429 1127.78 410.073C1127.78 362.716 1089.39 324.327 1042.04 324.327C994.682 324.327 956.292 362.716 956.292 410.073C956.292 457.429 994.682 495.819 1042.04 495.819Z" fill="#FF00A4"/>
<path fill-rule="evenodd" clip-rule="evenodd" d="M877.693 164.545C877.693 196.883 851.478 223.099 819.14 223.099C786.803 223.099 760.588 196.883 760.588 164.545C760.588 132.207 786.803 105.992 819.14 105.992C851.478 105.992 877.693 132.207 877.693 164.545ZM819.14 192.135C834.378 192.135 846.73 179.782 846.73 164.545C846.73 149.308 834.378 136.956 819.14 136.956C803.903 136.956 791.551 149.308 791.551 164.545C791.551 179.782 803.903 192.135 819.14 192.135Z" fill="#FF00A4"/>
<path fill-rule="evenodd" clip-rule="evenodd" d="M1318.72 639.92C1318.72 667.544 1296.33 689.938 1268.71 689.938C1241.08 689.938 1218.69 667.544 1218.69 639.92C1218.69 612.295 1241.08 589.901 1268.71 589.901C1296.33 589.901 1318.72 612.295 1318.72 639.92ZM1268.71 672.472C1286.68 672.472 1301.26 657.898 1301.26 639.92C1301.26 621.942 1286.68 607.368 1268.71 607.368C1250.73 607.368 1236.15 621.942 1236.15 639.92C1236.15 657.898 1250.73 672.472 1268.71 672.472Z" fill="#73008B"/>
<path fill-rule="evenodd" clip-rule="evenodd" d="M921.756 662.15C921.756 681.882 905.761 697.878 886.029 697.878C866.298 697.878 850.302 681.882 850.302 662.15C850.302 642.419 866.298 626.423 886.029 626.423C905.761 626.423 921.756 642.419 921.756 662.15ZM886.029 681.205C896.553 681.205 905.084 672.674 905.084 662.15C905.084 651.627 896.553 643.096 886.029 643.096C875.506 643.096 866.975 651.627 866.975 662.15C866.975 672.674 875.506 681.205 886.029 681.205Z" fill="#01688E"/>
</svg>
